<?xml version="1.0" encoding="UTF-8"?>
<svg width="58px" height="63px" viewBox="0 0 58 63" version="1.1" xmlns="http://www.w3.org/2000/svg" xmlns:xlink="http://www.w3.org/1999/xlink">
    <!-- Generator: Sketch 56.3 (81716) - https://sketch.com -->
    <title>Fill 1</title>
    <desc>Created with Sketch.</desc>
    <g id="dashboard3.0" stroke="none" stroke-width="1" fill="none" fill-rule="evenodd">
        <g id="Dashboard-Shell---Products" transform="translate(-1841.000000, -354.000000)" fill="#FFFFFF">
            <g id="Products" transform="translate(391.000000, 74.000000)">
                <g id="3Dasset" transform="translate(1361.000000, 277.000000)">
                    <path d="M147,16.2742149 C147,15.8805377 146.705521,15.4868865 146.408494,15.3877958 L118.442979,3.07428872 C118.1485,2.97523709 117.851473,2.97523709 117.656025,3.07428872 L89.6905105,15.3877958 C89.591506,15.4868475 89,15.5859056 89,16.2742149 L89.0025391,52.2335829 C89.0025391,52.6272601 89.2005548,52.9244215 89.5940451,53.120002 L117.559561,65.9257113 C117.85404,66.0247629 118.151067,66.0247629 118.346516,65.9257113 L146.312024,53.120002 C146.705514,52.9218922 146.90353,52.6272731 146.90353,52.2335829 C147,52.1345313 147,16.1753843 147,16.2742149 Z M118,5 L144,16.4492925 C143.399311,16.74964 147.69953,14.8413672 118,28 L92,16.4492925 L118,5 Z M91,18 C91.9851399,18.3875642 110.205551,26.3412044 117,29.347136 L117,63 L91,51.1683053 L91,18 Z M145,51.2637077 L119,63 L119,29.3464901 L145,18 L145,51.2637077 Z" id="Fill-1"></path>
                </g>
            </g>
        </g>
    </g>
</svg>