<?xml version="1.0" encoding="UTF-8"?>
<svg width="53px" height="71px" viewBox="0 0 53 71" version="1.1" xmlns="http://www.w3.org/2000/svg" xmlns:xlink="http://www.w3.org/1999/xlink">
    <!-- Generator: Sketch 56.3 (81716) - https://sketch.com -->
    <title>assetcreationinfo_icon</title>
    <desc>Created with Sketch.</desc>
    <g id="dashboard3.0" stroke="none" stroke-width="1" fill="none" fill-rule="evenodd">
        <g id="Dashboard---Overview" transform="translate(-24.000000, -974.000000)" fill="#FFFFFF">
            <g id="SidebarButtons">
                <g transform="translate(0.000000, 181.000000)" id="Text_icons">
                    <g>
                        <g id="assetcreationinfo_icon" transform="translate(24.000000, 793.000000)">
                            <g id="Group-3" stroke-width="1" transform="translate(26.000000, 0.000000)">
                                <path d="M17.1792478,33.10689 L12.2712279,33.10689 L12.2712279,22.5950023 L14.1120298,22.1068783 C14.477887,22.1068783 22.0872676,20.152106 22.0872676,13.5521095 C22.0872676,7.19733955 17.4231172,4.99734073 13.4976438,4.99734073 C9.32594467,4.99734073 4.9080199,7.19733955 4.9080199,13.5521095 L0,13.5521095 C0,5.48544713 5.40047125,0.10689 13.5,0.10689 C21.477594,0.10689 27,5.60689 27,13.5521095 C27,20.763999 21.3556593,24.7973302 17.181604,26.385436 L17.1792478,33.10689 Z" id="Fill-1"></path>
                                <polygon id="Fill-2" points="12 37.10689 17 37.10689 17 42.10689 12 42.10689"></polygon>
                            </g>
                            <path d="M52,25.9061921 C52,25.5562568 51.7359842,25.2063446 51.4696843,25.1182641 L26.3971538,14.1729244 C26.133138,14.0848785 25.8668381,14.0848785 25.6916083,14.1729244 L0.619078424,25.1182641 C0.530315688,25.20631 0,25.2943616 0,25.9061921 L0.00227646061,57.8700748 C0.00227646061,58.2200101 0.179807759,58.4841536 0.532592148,58.6580029 L25.6051238,70.0408556 C25.8691396,70.1289015 26.1354395,70.1289015 26.3106693,70.0408556 L51.383194,58.6580029 C51.7359783,58.4819053 51.9135096,58.2200217 51.9135096,57.8700748 C52,57.7820289 52,25.8183428 52,25.9061921 Z M26,16.10689 L49,26.0627965 C48.4686209,26.3239683 52.2726615,24.6646006 26,36.10689 L3,26.0627965 L26,16.10689 Z M2,27.10689 C2.87146993,27.460004 18.9895255,34.706654 25,37.4453917 L25,68.10689 L2,57.3269015 L2,27.10689 Z M50,57.4138236 L27,68.10689 L27,37.4448032 L50,27.10689 L50,57.4138236 Z" id="Fill-1"></path>
                        </g>
                    </g>
                </g>
            </g>
        </g>
    </g>
</svg>