<?xml version="1.0" encoding="UTF-8"?>
<svg width="25px" height="25px" viewBox="0 0 40 41" version="1.1" xmlns="http://www.w3.org/2000/svg" xmlns:xlink="http://www.w3.org/1999/xlink">
    <!-- Generator: Sketch 56.3 (81716) - https://sketch.com -->
    <title>product_icon</title>
    <desc>Created with Sketch.</desc>
    <g id="dashboard3.0" stroke="none" stroke-width="1" fill="none" fill-rule="evenodd">
        <g id="Dashboard---Overview" transform="translate(-39.000000, -274.000000)" fill="#cacaca">
            <g id="SidebarButtons">
                <g transform="translate(0.000000, 181.000000)" id="Text_icons">
                    <g>
                        <g id="product_icon" transform="translate(39.000000, 93.000000)">
                            <g>
                                <path d="M40,0.778476913 C40,0.348695379 39.6554514,0 39.2307809,0 L11.5388917,0 C11.5348856,0 11.530879,0.00202715388 11.5268724,0.00202715388 C11.5208633,0.00202715388 11.5148536,0.00405430776 11.508844,0.00405430776 C11.4126916,0.00810913451 11.3205443,0.0283822303 11.2344071,0.0648741141 C11.2324041,0.0648741141 11.230401,0.066901268 11.2283975,0.0689284218 C11.1362501,0.109474613 11.0541232,0.168267266 10.9860114,0.239222842 C10.9840083,0.241249995 10.9820048,0.241249995 10.9820048,0.243277149 L0.210885527,11.6246096 C0.108722969,11.7340842 0.056641705,11.8678837 0.0265908772,12.0037123 C0.0185781778,12.0361488 0.0125690379,12.0706146 0.00856243176,12.1050752 C0.00655938512,12.1354841 -0.00145331428,12.1638658 0.000230964897,12.1942783 L0.000230964897,40.2215231 C0.000230964897,40.6513046 0.345098371,41 0.769768875,41 L28.461658,41 C28.6800034,41 28.8763133,40.9067437 29.0165214,40.7587552 L29.018525,40.7607823 L39.787593,29.343121 L39.7855894,29.3410938 C39.9177977,29.2012119 40,29.0126751 40,28.8038409 L40,0.778476913 Z M37.1895297,29.841615 L29.2306756,38.2792668 L29.2306756,12.508567 L38.4613053,2.72311224 L38.4613053,28.491736 L37.6900862,29.3087216 L37.6920892,28.2849207 L34.6152127,28.2849207 L34.6152127,29.8418745 L37.1895297,29.841615 Z M10.7694162,10.1201999 L10.7694162,11.4176614 L2.5362073,11.4176614 L10.7694162,2.71636544 L10.7694162,3.89217697 L12.3078545,3.89217697 L12.3078545,1.55674623 L37.4336285,1.55674623 L28.1327435,11.4174538 L12.3078545,11.4174538 L12.3078545,10.1199923 L10.7694162,10.1201999 Z M2.37005597,39.4428303 L2.4742185,39.3374141 L1.53874546,38.3906824 L1.53874546,12.9744491 L10.7693752,12.9744491 L10.7693752,13.2339415 L12.3078134,13.2339415 L12.3078134,12.9744491 L27.6921963,12.9744491 L27.6921963,28.2844951 L25.3825389,28.2844951 L25.3825389,29.8414489 L27.6921963,29.8414489 L27.6921963,39.4428303 L2.37005597,39.4428303 Z" id="Shape" fill-rule="nonzero"></path>
                                <polygon id="Path" fill-rule="nonzero" points="11 14 13 14 13 18 11 18"></polygon>
                                <polygon id="Path" fill-rule="nonzero" points="11 19 13 19 13 23 11 23"></polygon>
                                <polygon id="Path" fill-rule="nonzero" points="11 4 13 4 13 8 11 8"></polygon>
                                <polygon id="Path" fill-rule="nonzero" points="3.33333333 39 2 37.6666667 4.66666667 35 6 36.3333333"></polygon>
                                <polygon id="Path" fill-rule="nonzero" points="11 23 13 23 13 27 11 27"></polygon>
                                <polygon id="Path" fill-rule="nonzero" points="6.33333333 35 5 33.6666667 7.66666667 31 9 32.3333333"></polygon>
                                <polygon id="Path" fill-rule="nonzero" points="20 28 23 28 23 30 20 30"></polygon>
                                <polygon id="Path" fill-rule="nonzero" points="30 28 33 28 33 30 30 30"></polygon>
                                <polygon id="Path" fill-rule="nonzero" points="16 28 19 28 19 30 16 30"></polygon>
                                <polygon id="Path" fill-rule="nonzero" points="11.2600692 27.6178069 11.031742 27.6178069 10.7766595 27.2713515 9 29.684426 9.96860958 31 11.5437018 28.8606959 14 28.8606959 14 27 11.2600738 27"></polygon>
                            </g>
                        </g>
                    </g>
                </g>
            </g>
        </g>
    </g>
</svg>
