<?xml version="1.0" encoding="UTF-8"?>
<svg width="44px" height="46px" viewBox="0 0 44 46" version="1.1" xmlns="http://www.w3.org/2000/svg" xmlns:xlink="http://www.w3.org/1999/xlink">
    <!-- Generator: Sketch 56.3 (81716) - https://sketch.com -->
    <title>settings_icon</title>
    <desc>Created with Sketch.</desc>
    <g id="dashboard3.0" stroke="none" stroke-width="1" fill="none" fill-rule="evenodd">
        <g id="Dashboard---Overview" transform="translate(-39.000000, -489.000000)" fill="#FFFFFF">
            <g id="SidebarButtons">
                <g transform="translate(0.000000, 181.000000)" id="Text_icons">
                    <g>
                        <g id="settings_icon" transform="translate(39.000000, 308.000000)">
                            <g id="Shape">
                                <path d="M43.9927315,18.1342361 C44.0006159,18.0971646 43.998645,18.0600911 43.996674,18.0210706 C43.996674,17.9976569 44.0025869,17.9742431 43.998645,17.9488787 L43.3146581,13.9002278 C43.3126871,13.8924232 43.3067737,13.8865696 43.3067737,13.878765 C43.3028317,13.8670584 43.3028317,13.8534002 43.2988893,13.841693 C43.2910049,13.8163282 43.2752361,13.7948654 43.2653808,13.7714542 C43.2535539,13.7480399 43.2456695,13.722675 43.2299007,13.7012103 C43.2220163,13.6895036 43.2161029,13.679748 43.2062476,13.6699919 C43.2023056,13.6660898 43.2023056,13.6602363 43.1983632,13.6563342 C43.1845653,13.640725 43.1668256,13.6329204 43.1510568,13.6192622 C43.1313461,13.601702 43.1136063,13.5821903 43.0899546,13.5685336 C43.0820708,13.56268 43.0781283,13.5568265 43.0702439,13.5509729 L39.3290805,11.4125379 L40.1983569,9.89647286 C40.2042698,9.88866826 40.2022988,9.87891264 40.2082122,9.86915701 C40.2141257,9.85549884 40.223981,9.84574272 40.2298944,9.83208505 C40.2377788,9.8125733 40.2358074,9.79111103 40.2397498,9.76964826 C40.2456632,9.75013652 40.2574896,9.73062527 40.259461,9.7091645 C40.261432,9.69550633 40.2574896,9.68379968 40.2574896,9.67014151 C40.259461,9.63892311 40.2555186,9.60965774 40.2496052,9.57843935 C40.2456632,9.5589281 40.2496052,9.53746533 40.2436923,9.51795559 C40.2397498,9.50624894 40.2318654,9.49649332 40.2279235,9.48478617 C40.2180676,9.4555188 40.2022988,9.42820346 40.18653,9.40088611 C40.1766747,9.38332539 40.1707612,9.36381415 40.1589349,9.34625143 C40.1510505,9.33649581 40.1392237,9.33064223 40.1313393,9.32088661 C40.1096571,9.29552179 40.0840329,9.27796157 40.0584093,9.2564968 C40.0426405,9.24283863 40.0308136,9.22527841 40.0111029,9.21552278 L40.007161,9.21357176 L26.0418192,1.2331515 C26.0299929,1.22729793 26.0161951,1.22729793 26.0043688,1.22144485 C25.9925419,1.21559128 25.9846575,1.20583566 25.9728312,1.20193311 L22.9511281,0.0312183931 C22.9314173,0.0234137948 22.9117061,0.0253648195 22.8900259,0.0214627701 C22.8604598,0.0136581718 22.8348377,0.00585357357 22.805268,0.00390254888 C22.7914702,0.00195102469 22.7776724,0 22.7658461,0 C22.7421929,0 22.7205107,0.00780459827 22.696857,0.00975562296 C22.6692614,0.0136581718 22.6416637,0.0156091965 22.6160401,0.0234137948 C22.6022423,0.0273158442 22.5884445,0.0312183931 22.5766181,0.035120942 C22.5549359,0.0429250407 22.5391671,0.0585342373 22.5194569,0.0702413844 C22.4938322,0.0838995563 22.4701791,0.0956062039 22.4484948,0.115117949 C22.4386395,0.122922548 22.4268131,0.130727146 22.4169573,0.140482769 C22.3992175,0.15804299 22.3873912,0.17950576 22.3716224,0.199018505 C22.3578246,0.216579225 22.3400848,0.228285873 22.328258,0.245846094 C22.324316,0.253651192 22.324316,0.261455291 22.3203736,0.269260388 C22.3164316,0.277064487 22.3105182,0.280967036 22.3065758,0.288771634 L21.0095994,3.09258293 L17.2546603,0.946305917 C17.2369206,0.936550294 17.2152384,0.934599269 17.1955261,0.926794671 C17.1639885,0.913136499 17.132451,0.901429352 17.0969725,0.893625253 C17.0654349,0.887771679 17.0338973,0.887771679 17.0023597,0.887771679 C16.9708222,0.887771679 16.9392846,0.887771679 16.907747,0.893625253 C16.872267,0.899478327 16.8407309,0.913136499 16.8091934,0.926794671 C16.7894826,0.934599269 16.7697714,0.936550294 16.7500592,0.946305917 L12.8058947,3.1998743 C12.7960388,3.20572787 12.7920968,3.21353247 12.782241,3.21938605 C12.7585883,3.23499524 12.7388771,3.25255546 12.7191658,3.27206771 C12.7014261,3.28767691 12.6836863,3.30133508 12.6679185,3.3188953 C12.6580632,3.33255347 12.6501788,3.34621164 12.6403229,3.35986981 C12.63441,3.36962544 12.6245541,3.37352749 12.6206122,3.38328311 C12.6127278,3.39694128 12.6127278,3.41255048 12.6048434,3.42815967 C12.594988,3.44767142 12.5851327,3.46718267 12.5772478,3.48864344 C12.5713348,3.50620366 12.5693639,3.52181286 12.5673924,3.53937208 C12.561479,3.56668842 12.559508,3.59400676 12.559508,3.62327213 C12.559508,3.63888133 12.5516236,3.6525395 12.5535951,3.6681487 L12.8315193,7.73433191 C11.822317,8.52258385 10.9136312,9.3791666 10.0660526,10.3313026 L7.53911096,8.88746443 C7.51151533,8.87185523 7.48391768,8.8699042 7.4543531,8.86014808 C7.42281553,8.84844143 7.39325094,8.83478326 7.36171337,8.82892969 C7.32623335,8.82307661 7.2927243,8.82892969 7.25921878,8.83088071 C7.22965218,8.83283224 7.20008457,8.83088071 7.17051999,8.83673429 C7.13701094,8.84453889 7.10547186,8.86209911 7.07393428,8.8777083 C7.04633916,8.88941545 7.01874605,8.89917107 6.99509035,8.91673179 C6.96749523,8.93624304 6.94581302,8.96551041 6.92216035,8.99087673 C6.90244962,9.01038847 6.87879644,9.02599767 6.86302614,9.04941246 L3.84132301,13.6736307 C3.83935203,13.6755817 3.83935203,13.6794843 3.83935203,13.6814353 C3.83738106,13.6833863 3.83541009,13.6853373 3.83343912,13.6872889 C3.83146764,13.6892399 3.83343912,13.6911909 3.83146764,13.6931424 C3.82949667,13.6950935 3.8275257,13.6950935 3.8275257,13.6970445 C3.81175691,13.7224093 3.80978543,13.7516792 3.79993007,13.7789915 C3.7900747,13.8082589 3.77233494,13.8375273 3.7683925,13.8667926 C3.7683925,13.8706947 3.76642152,13.8745972 3.76642152,13.8784993 C3.76247908,13.9077666 3.7683925,13.937035 3.77036397,13.9682534 C3.77233494,13.9975203 3.7683925,14.0287372 3.77430592,14.0580075 C3.77627689,14.0619101 3.77627689,14.0658121 3.77627689,14.0697147 C3.78416128,14.098982 3.80190155,14.1243494 3.81372788,14.1516617 C3.82555422,14.1789781 3.83343912,14.2082444 3.85117888,14.2316607 C3.85314985,14.2355633 3.85512082,14.2394658 3.85906327,14.2414168 C3.87680303,14.2667817 3.90636963,14.2843419 3.92805234,14.3058066 C3.94973404,14.3253179 3.96353186,14.3487322 3.98915449,14.3643424 C3.99112597,14.3662934 3.99506792,14.3662934 3.99703889,14.3682444 C3.99900986,14.3701955 3.99900986,14.3721465 4.00098134,14.3721465 L6.3584275,15.7867143 C5.61726931,17.2383446 5.03975329,18.7212433 4.6041311,20.2957991 L1.06208326,21.2850475 C1.06011229,21.2850475 1.05814131,21.2869986 1.05616984,21.2869986 L1.05222789,21.2889501 C1.04040105,21.2928521 1.03251666,21.3006567 1.02069032,21.3045593 C0.973383961,21.3221195 0.926077602,21.3396797 0.884685169,21.3708971 L0.878771748,21.3767507 C0.855118568,21.3943109 0.841320754,21.4196762 0.821610528,21.4411405 C0.797956844,21.4665058 0.772332693,21.4879681 0.754594448,21.5172335 C0.754594448,21.5191845 0.752623476,21.5191845 0.752623476,21.5191845 C0.752623476,21.5211355 0.752623476,21.5211355 0.750651999,21.523087 C0.730941269,21.560159 0.721085903,21.601133 0.711230538,21.6401585 C0.705317117,21.6596698 0.693490275,21.67723 0.689548331,21.6986943 L0.687576854,21.7064988 L0.687576854,21.7084499 L0.00358998085,26.5316666 L0.00358998085,26.5355692 C-0.00429441228,26.5941049 0.00161900872,26.6526406 0.0134453461,26.7092234 C0.0154163183,26.717028 0.0134453461,26.7228815 0.0154163183,26.7306861 C0.0272431603,26.7736117 0.0508963397,26.8126332 0.0745505283,26.8516587 C0.0844058935,26.8672679 0.0883478378,26.8867791 0.10017468,26.9023873 C0.104116624,26.9082409 0.112001522,26.9121429 0.117914438,26.9179965 C0.155365432,26.9628731 0.19675837,27.0018965 0.248005663,27.0311619 C0.249976636,27.0331134 0.249976636,27.0331134 0.249976636,27.0331134 L4.13893778,29.2554634 L1.17834185,32.5782493 C1.16848649,32.5880049 1.16651501,32.6016631 1.15863062,32.6133702 C1.14877525,32.6270284 1.13497744,32.6387351 1.12709304,32.6523932 C1.12512207,32.6543443 1.1231511,32.6562953 1.12118013,32.6582468 C1.11132426,32.673856 1.11132426,32.6894652 1.10541134,32.7070254 C1.0935845,32.7343413 1.08175766,32.7597071 1.07584474,32.7870244 C1.07190229,32.8026336 1.06598887,32.8182428 1.06204693,32.833852 C1.05810498,32.8533633 1.06204693,32.872875 1.06204693,32.8923877 C1.06007595,32.9197036 1.06204693,32.9470174 1.06598887,32.9743348 C1.06796035,32.989944 1.06796035,33.0075042 1.07190229,33.0231134 C1.07584474,33.0426251 1.08570011,33.0582343 1.0935845,33.0757951 C1.10343986,33.1031109 1.11526671,33.1284767 1.13103549,33.1557941 C1.13891989,33.1675012 1.13891989,33.1811589 1.14680428,33.192866 L3.11989574,35.969355 C3.12186671,35.971306 3.12383819,35.971306 3.12580916,35.9752081 C3.16523112,36.0298427 3.21648094,36.0786184 3.28152403,36.1156908 L17.2509026,44.0976096 C17.256816,44.1015121 17.2627294,44.1015121 17.2666713,44.1054142 C17.2745557,44.1093167 17.2824401,44.1112677 17.2922955,44.1151703 C17.3001804,44.1190723 17.3080643,44.1210234 17.3159492,44.1249259 C17.331718,44.1307795 17.3455153,44.1385836 17.3612841,44.1424861 C17.4085904,44.1561443 17.4558968,44.1639489 17.5032031,44.1639489 C17.5051746,44.1639489 17.5071456,44.1619979 17.5091166,44.1619979 C17.5544519,44.1619979 17.5978154,44.1541928 17.6411808,44.1424861 C17.6569496,44.1385836 17.6707469,44.1307795 17.6865157,44.1249259 C17.6944006,44.1210234 17.7022844,44.1190723 17.7101693,44.1151703 C17.7180532,44.1112677 17.7279091,44.1093167 17.7357935,44.1054142 C17.7495908,44.0976096 17.7614176,44.091756 17.7732445,44.0820004 C17.7791574,44.0780983 17.7870418,44.0761468 17.7929552,44.0722447 C17.8008396,44.0663912 17.8028106,44.0605376 17.810695,44.0546845 C17.8422325,44.0312707 17.8698292,44.0039559 17.8934798,43.9727375 C17.8974218,43.9668839 17.9053062,43.9649329 17.9092486,43.9590798 L18.0807323,43.7268949 L21.9420917,45.9336607 C21.9578605,45.9434168 21.9756003,45.9473188 21.993339,45.9531724 C22.0071364,45.959026 22.0189632,45.9648791 22.03079,45.9707326 C22.034732,45.9726842 22.036703,45.9746352 22.0406454,45.9765862 C22.0445873,45.9785372 22.0485298,45.9765862 22.0524717,45.9785372 C22.0997781,45.9921954 22.1451115,46 22.1924178,46 L22.1943888,46 C22.2200135,46 22.2456361,45.998049 22.2712597,45.9941464 L25.9789177,45.4185792 C25.9927155,45.4166281 26.0045423,45.4088235 26.0163687,45.4049215 C26.0538197,45.3951659 26.0892987,45.3815077 26.1247772,45.3658985 C26.1464594,45.3561424 26.1661701,45.3463867 26.1858793,45.3327291 C26.2174169,45.3093148 26.2450136,45.2820004 26.2726102,45.2546831 C26.2864075,45.2390739 26.3021763,45.2254157 26.3159741,45.2078555 C26.3396273,45.1746856 26.3534251,45.1356636 26.3691944,45.0966381 C26.3770788,45.0771269 26.3869341,45.0615177 26.3928476,45.0400554 C26.3928476,45.0361533 26.3948185,45.0342018 26.3967895,45.0322508 L27.4059918,40.3494918 C27.7410773,40.2226652 28.0702488,40.0821825 28.3954642,39.9260905 L31.7877465,41.8655269 C31.8015443,41.8733315 31.8173131,41.8772341 31.8311104,41.8830877 C31.8429372,41.8889407 31.8527926,41.8947943 31.8646194,41.8986968 C31.8744748,41.9025989 31.8823592,41.9065009 31.8941855,41.9084525 C31.9414919,41.9221101 31.9907712,41.9318663 32.0400455,41.9318663 L32.0420165,41.9318663 C32.0873519,41.9318663 32.1307153,41.9240617 32.1740807,41.914306 L32.1780227,41.914306 C32.1819651,41.9123545 32.1859076,41.9104035 32.1878785,41.9084525 C32.1957629,41.9065009 32.1997049,41.9025989 32.2075893,41.9006479 C32.2213871,41.8947943 32.2351849,41.8908917 32.2470112,41.8850387 C32.2785488,41.8713805 32.3061454,41.8538203 32.3337421,41.83431 C32.3455689,41.8265054 32.3573953,41.8187008 32.3672506,41.8089452 C32.3771065,41.8011406 32.3869619,41.795287 32.3948463,41.7874824 L32.3968172,41.7874824 L36.1025072,38.1271383 C36.1084207,38.1212853 36.1084207,38.1154317 36.1143341,38.1095781 C36.1399582,38.0822618 36.155727,38.0529954 36.1734683,38.019824 C36.1872661,37.9944592 36.2069773,37.9710454 36.2168327,37.943731 C36.2266881,37.9144637 36.228659,37.8832473 36.2345725,37.8500759 C36.2404859,37.8188575 36.2483703,37.7876391 36.2463988,37.7564207 C36.2444278,37.7271533 36.2365434,37.699838 36.23063,37.6705676 C36.2227461,37.6354467 36.2168327,37.6003287 36.2010639,37.5671573 C36.1971215,37.5613042 36.1990924,37.5534996 36.1951505,37.547646 L34.7187884,34.6482315 C35.7772903,33.333163 36.6780538,31.9576057 37.4605893,30.470811 L40.3522062,31.0698045 C40.3857153,31.0776091 40.4211953,31.0795601 40.4547008,31.0795601 L40.4586433,31.0795601 C40.5118636,31.0795601 40.5631108,31.0698045 40.6143581,31.0522443 C40.6320984,31.0463907 40.6458957,31.0366351 40.663636,31.0288305 C40.6951735,31.0151723 40.7267111,30.9995631 40.7543078,30.9781019 C40.7700765,30.9663952 40.7858453,30.950786 40.7996431,30.9351768 C40.8232963,30.913714 40.8449785,30.8903002 40.8646913,30.8629849 C40.8765181,30.8454242 40.8883445,30.8259129 40.8981998,30.8044492 C40.9060847,30.78884 40.9179111,30.7751818 40.9257955,30.7576216 L42.8949006,25.73171 L42.8949006,25.729759 L42.8968715,25.7258565 C42.9047559,25.7063452 42.902785,25.6868335 42.9067269,25.6653727 C42.9146113,25.6322028 42.9224957,25.6009829 42.9244672,25.5697645 C42.9264381,25.5580579 42.9303801,25.5483017 42.9303801,25.5365951 L42.9303801,25.5346441 C42.9303801,25.5151323 42.9205247,25.4956211 42.9185537,25.4761083 C42.9126403,25.4448899 42.9086984,25.4156246 42.8988425,25.3863542 C42.8870162,25.3512333 42.8692759,25.3180633 42.8495652,25.288798 C42.8357674,25.2673352 42.823941,25.2458729 42.8062008,25.2283142 C42.7805766,25.1970958 42.7510125,25.1736795 42.717502,25.1502682 C42.7037047,25.1405121 42.6938488,25.1249029 42.67808,25.1170983 L39.8594284,23.50543 C39.9993745,22.6488972 40.0703365,21.8176888 40.0742775,20.9884284 L43.7898072,18.4382603 C43.8095184,18.4246021 43.8213448,18.4031393 43.839085,18.3875316 C43.8666801,18.3621668 43.8962462,18.336803 43.917929,18.3055846 C43.9356687,18.2782687 43.9455241,18.2490019 43.9573504,18.2177835 C43.9711482,18.1924187 43.986917,18.1651018 43.9928304,18.1338834 L43.9927315,18.1342361 Z M39.2877294,20.3156275 C39.2739316,20.3253832 39.2680187,20.3390413 39.2561918,20.3487969 C39.2285967,20.3722107 39.2049445,20.3956245 39.1832618,20.4229419 C39.1635506,20.4483067 39.1458108,20.4717205 39.1320145,20.4990348 C39.1182172,20.5263507 39.1063904,20.5556176 39.098506,20.5868359 C39.0886506,20.6200054 39.0827372,20.6531738 39.0807662,20.6863452 C39.0787952,20.7019544 39.0709109,20.7156121 39.0709109,20.7312213 C39.0886506,22.2570265 38.8718306,23.7710936 38.3888919,25.4939992 C38.382979,25.5174125 38.386921,25.5408268 38.382979,25.5642381 C38.3790366,25.5896034 38.3691812,25.6130172 38.3691812,25.638383 C38.3691812,25.6481387 38.3750941,25.6559433 38.3750941,25.6656994 C38.3790366,25.6988688 38.386921,25.7300892 38.3967763,25.7613076 C38.4066317,25.792526 38.4125451,25.8237444 38.4263429,25.8510617 C38.4401407,25.878378 38.4598515,25.9017903 38.4775902,25.9252066 C38.4973009,25.9525225 38.5170117,25.9778883 38.5426383,25.9993516 C38.5643201,26.0188633 38.5899447,26.032521 38.6155684,26.0481302 C38.6471059,26.0656909 38.6766705,26.0832511 38.7101811,26.0969093 C38.7200364,26.1008113 38.7259499,26.1066649 38.7377762,26.110567 C38.7831116,26.1222741 38.828448,26.1281277 38.8718134,26.1281277 L38.8737844,26.1281277 L38.8836397,26.1281277 L41.680644,26.069592 L40.1353029,30.0109016 L37.2929855,29.4197002 C37.2811592,29.4177491 37.2673613,29.4216517 37.2555345,29.4197002 C37.222026,29.4157981 37.1885184,29.4157981 37.1569809,29.4197002 C37.1254433,29.4216517 37.0939057,29.4236027 37.0623681,29.4314073 C37.0308306,29.4392119 37.0032339,29.4548211 36.9716964,29.4684793 C36.9441012,29.4821369 36.9165081,29.4938441 36.8928524,29.5133553 C36.8652573,29.5328671 36.8435751,29.5562809 36.8218954,29.5816462 C36.8002132,29.607011 36.778531,29.6304253 36.7627612,29.6577392 C36.7568478,29.6674948 36.7450214,29.6752994 36.739108,29.6870065 C35.9013692,31.3415814 34.9178006,32.8459083 33.731231,34.2819544 C33.7174331,34.2995146 33.7115197,34.3209769 33.6996934,34.3404901 C33.6780112,34.3756111 33.654358,34.408781 33.6425322,34.4497545 C33.6326768,34.4809729 33.6326768,34.5141443 33.6307058,34.5473107 C33.6267634,34.5785291 33.618879,34.6077945 33.6228214,34.6390129 C33.6267634,34.6838894 33.6425322,34.724866 33.658301,34.7677875 C33.6642144,34.7853477 33.6642144,34.804859 33.6740697,34.8224222 L33.6780122,34.8302268 C33.6780122,34.8302268 33.6780122,34.8321778 33.6799832,34.8321778 L35.1307115,37.6788957 L32.290362,40.482707 L31.4566095,37.5696563 C31.4408407,37.5150216 31.4112741,37.4623449 31.3757926,37.4135643 C31.3324282,37.3550286 31.2792069,37.3023469 31.2141638,37.2691805 C31.1826262,37.2516203 31.1471477,37.2457667 31.1136372,37.2360111 C31.0840706,37.2282065 31.0584439,37.2125973 31.0288793,37.2106462 C30.9342666,37.2008906 30.8416269,37.2243039 30.752923,37.267229 C30.7194145,37.2828382 30.681966,37.2964963 30.6543694,37.3179576 C29.3672327,38.3403725 28.1431712,39.0388653 26.7989137,39.5149333 C26.783145,39.5207869 26.7713186,39.5324935 26.7555498,39.5402981 C26.7220408,39.5559073 26.6905017,39.573468 26.6609371,39.5968808 C26.6372839,39.6163926 26.6156017,39.6359043 26.595889,39.6593176 C26.5742073,39.6846829 26.554496,39.7080967 26.5387278,39.7373636 C26.520988,39.768582 26.5091617,39.7978473 26.4973348,39.8310188 C26.4914214,39.8485795 26.4795951,39.8622372 26.4756526,39.8817474 L25.4802259,44.4923294 L22.9237146,44.8903664 L24.2995601,40.6231867 C24.3054735,40.6056265 24.3015316,40.5861148 24.3054735,40.566604 C24.3094155,40.5451412 24.3192713,40.527581 24.3212423,40.5061203 C24.3232133,40.4924621 24.3153289,40.4788044 24.3153289,40.4670973 C24.3153289,40.4339278 24.3094155,40.4007594 24.3015316,40.367588 C24.2936467,40.3363696 24.2877338,40.3071042 24.2759069,40.2778339 C24.2640806,40.2466155 24.2463403,40.2212512 24.2266296,40.1958868 C24.2088898,40.170522 24.1911501,40.1451582 24.1674954,40.1236949 C24.1438427,40.1022322 24.120189,40.0846719 24.0925924,40.0671122 C24.0630258,40.0476005 24.0354312,40.0319913 24.0038936,40.0183331 C23.9920668,40.01248 23.9822114,40.0027239 23.9684136,39.9988219 C23.9487029,39.9929683 23.9289916,39.9949198 23.9073114,39.9910173 C23.8876002,39.9871147 23.8698604,39.9773591 23.8501502,39.9754081 C22.7187335,39.8993151 21.8908848,39.575423 21.0807477,38.8964005 C21.0768052,38.892498 21.0708923,38.8905469 21.0649789,38.8885959 C21.0590655,38.8846934 21.0570945,38.8788398 21.0531525,38.8749377 C21.0294989,38.8573775 21.0019052,38.8515239 20.9762816,38.8398173 C20.946715,38.8261591 20.9191204,38.8085989 20.8875828,38.7988428 C20.8560452,38.7890872 20.8225347,38.7910382 20.7890291,38.7890872 C20.7574916,38.7871361 20.727927,38.7812826 20.6963894,38.7851846 C20.6628809,38.7890872 20.6333143,38.8007938 20.6017767,38.812501 C20.5702391,38.8222566 20.5406746,38.8281101 20.5130779,38.8437193 C20.4835113,38.8593285 20.4598576,38.8827423 20.434234,38.9061561 C20.4125518,38.9237164 20.3888986,38.9354235 20.3691858,38.9568848 C20.3652434,38.9627383 20.3632724,38.9666409 20.3613015,38.972494 C20.357359,38.9783475 20.3514456,38.9802991 20.3475036,38.9842011 L17.5071542,42.8201674 L16.1688005,40.9353757 L19.4605157,37.2418651 C19.4664286,37.2360116 19.4683996,37.2262559 19.4723421,37.2204024 C19.4881108,37.2008911 19.5058506,37.1833304 19.5176774,37.1618666 C19.5235909,37.152111 19.5235909,37.1423554 19.5275328,37.1325998 C19.5354172,37.1169906 19.5433016,37.1033324 19.549215,37.0877232 C19.5570994,37.0662604 19.5610414,37.0428466 19.5649838,37.0194323 C19.5708972,36.9940675 19.5768101,36.9706537 19.5787811,36.9452874 C19.5807526,36.9296782 19.5807526,36.914069 19.5807526,36.8984598 C19.5807526,36.875046 19.5748392,36.8535832 19.5708972,36.830169 C19.5669548,36.8028526 19.5630123,36.7774873 19.553157,36.752123 C19.549215,36.7423673 19.551186,36.7326117 19.5472435,36.7209046 C19.07418,35.565824 18.8731468,34.3580468 18.8967622,32.8049693 C18.8967622,32.8010672 18.8947912,32.7971647 18.8947912,32.7932626 C18.8947912,32.7620442 18.8829644,32.7288728 18.8770515,32.6976544 C18.8691666,32.664485 18.8671956,32.6313166 18.8533978,32.6000982 C18.8514268,32.5961961 18.8514268,32.5922936 18.8514268,32.588391 C18.8415714,32.5649777 18.8218602,32.5493685 18.8080629,32.5279073 C18.7883517,32.4966889 18.7706119,32.4654705 18.7430148,32.4401062 C18.7193621,32.4166919 18.6897945,32.4030342 18.6621978,32.3854715 C18.6346027,32.3679112 18.6109505,32.3484 18.5813809,32.3366929 C18.5459014,32.3230347 18.5084509,32.3191326 18.4709994,32.3132791 C18.4473462,32.309377 18.425664,32.2996214 18.4000424,32.2976699 L18.392158,32.2976699 C18.390187,32.2976699 18.3882161,32.2996214 18.3842736,32.2996214 C18.352736,32.2996214 18.3211985,32.311328 18.2896609,32.3171816 C18.2561523,32.3249862 18.2206718,32.3269372 18.1891342,32.3405954 C18.1851923,32.3425464 18.1832213,32.3405954 18.1792789,32.3425464 L15.0964685,33.7512702 L15.6069735,30.1494668 L19.1155159,29.1660624 C19.1194578,29.1641114 19.1214288,29.1621604 19.1253712,29.1602089 C19.139169,29.1563068 19.1529664,29.1504533 19.1667642,29.1445997 C19.2002727,29.130942 19.2298393,29.1153328 19.2594039,29.0958211 C19.2692593,29.0899675 19.2771437,29.0860654 19.2869995,29.0802119 C19.2929124,29.0743583 19.2968549,29.0685052 19.3047393,29.0646027 C19.3303634,29.0431399 19.3520456,29.0177751 19.3717554,28.9924108 C19.3816112,28.9807036 19.3914666,28.968997 19.401322,28.9553388 C19.4052639,28.9494852 19.4111773,28.9455832 19.4131488,28.9397296 C19.4131488,28.9377786 19.4131488,28.9377786 19.4151198,28.935827 C19.4249751,28.9202179 19.4249751,28.9026576 19.4328595,28.8850984 C19.4427149,28.8616846 19.4584837,28.8402218 19.4643971,28.8148595 C19.9295788,27.0588374 20.572148,25.4237428 21.4295663,23.8179187 C21.4433641,23.7925538 21.4453351,23.765237 21.4532195,23.7379196 C21.4630754,23.7086528 21.4788442,23.6813369 21.4827861,23.6520716 C21.4827861,23.646218 21.4827861,23.6423154 21.4847571,23.6364624 C21.4886995,23.605244 21.4808151,23.5779266 21.4788442,23.5467082 C21.4768727,23.5174409 21.4808151,23.4901255 21.4729307,23.4608552 C21.4709593,23.4550016 21.4689883,23.4510995 21.4689883,23.447197 C21.4611039,23.4179301 21.4433641,23.3925623 21.4295663,23.36525 C21.41774,23.3398851 21.4098556,23.3125683 21.3921153,23.289157 C21.3881734,23.2852544 21.3862024,23.2813524 21.38226,23.2774503 C21.3625492,23.252085 21.3349536,23.2345248 21.30933,23.2130605 C21.2876478,23.1955003 21.271879,23.1720865 21.2482278,23.1564778 L18.9400812,21.7711804 L21.3349688,18.1049922 L23.1976535,20.001522 C23.2055374,20.0093266 23.2173642,20.0132287 23.2252486,20.0210333 C23.235104,20.0288379 23.2390464,20.040545 23.2489018,20.0483496 C23.2745259,20.0678609 23.3021221,20.077617 23.3297187,20.0912747 C23.3474585,20.1010303 23.3632272,20.1127374 23.380966,20.118591 C23.4381272,20.1400538 23.4972614,20.1537115 23.5583636,20.1537115 C23.6273526,20.1537115 23.6963417,20.1361512 23.7594169,20.1088354 C23.7810991,20.0990793 23.7968679,20.0834701 23.8165781,20.0717634 C23.8481157,20.0522517 23.8816262,20.0385935 23.9092178,20.0132277 C23.9190732,20.0034721 23.9230156,19.9917649 23.9308995,19.9820093 C23.9387844,19.9742047 23.9486398,19.9722537 23.9545532,19.9624981 C25.0347024,18.5908368 26.2370661,17.4084339 27.6266872,16.3431125 C27.6326006,16.3392099 27.6345716,16.3333569 27.6385141,16.3294543 C27.6542829,16.3157966 27.6700516,16.3021385 27.6858204,16.2865293 C27.6956758,16.2767732 27.7035602,16.2650665 27.7114446,16.2533599 C27.7252424,16.2357991 27.7429821,16.2182389 27.754809,16.1987252 C27.754809,16.1987252 27.754809,16.1967741 27.75678,16.1967741 C27.7646644,16.183116 27.7666353,16.1675068 27.7725487,16.1518976 C27.7863466,16.1226307 27.7962019,16.0933618 27.8021153,16.0621435 C27.8060573,16.0445832 27.8159127,16.028974 27.8178841,16.0114148 C27.8198551,15.9938546 27.8139417,15.9782454 27.8139417,15.9606862 C27.8139417,15.945077 27.8218261,15.9314188 27.8198551,15.9158096 L27.5478448,11.9022731 L30.4039883,10.2691765 L30.1674565,14.0056435 C30.1674565,14.0095456 30.1694275,14.0114966 30.1694275,14.0134476 C30.1674565,14.0466176 30.1792828,14.0778375 30.1832253,14.1110039 C30.1891382,14.1441733 30.1891382,14.1773417 30.200965,14.2085601 C30.202936,14.2105111 30.200965,14.2144132 30.202936,14.2163642 C30.2246182,14.2690459 30.2541833,14.3158735 30.2896669,14.3588 C30.2995222,14.3685556 30.3093781,14.3744092 30.3192335,14.3841648 C30.352742,14.4173342 30.3882225,14.4446486 30.427642,14.4680649 C30.4434108,14.4778205 30.4591796,14.4836741 30.4769198,14.4914787 C30.5202837,14.5090389 30.5656186,14.520746 30.610952,14.5265991 C30.6208073,14.5285501 30.6306627,14.5344037 30.6405186,14.5344037 C30.6503739,14.5344037 30.6602293,14.5344037 30.6700847,14.5363552 L30.6720561,14.5363552 C30.7331583,14.5363552 30.7942655,14.5246481 30.8553677,14.5012343 C32.1838816,13.9881038 33.2344612,13.8261178 34.3718322,13.9548874 C34.3797166,13.9568385 34.3836586,13.9529364 34.391543,13.9529364 C34.4033698,13.9548874 34.4151961,13.9568385 34.427023,13.9568385 L34.4309649,13.9568385 C34.4368783,13.9568385 34.4427918,13.9548874 34.4506762,13.9548874 C34.4881272,13.9529364 34.5255792,13.9490339 34.5610577,13.9412293 C34.5807684,13.9353757 34.5965372,13.9256201 34.6162509,13.9197665 C34.6418751,13.9100109 34.6674982,13.9002552 34.6891809,13.8865971 C34.6990363,13.880744 34.7069207,13.8748904 34.7167761,13.8670858 C34.7345163,13.8553787 34.7483136,13.843672 34.7640824,13.8300139 C34.7739383,13.8202582 34.7837937,13.8105021 34.79562,13.8007465 C34.8094178,13.7870888 34.8212447,13.7695281 34.833071,13.7539189 C34.8429264,13.7402612 34.8547532,13.7285541 34.8646086,13.7148959 C34.870522,13.7051403 34.872493,13.6973357 34.8784064,13.6875801 C34.8823488,13.6797755 34.8882617,13.6758729 34.8902327,13.6680683 L36.9934104,9.12576716 L39.0275585,9.91401909 L36.5597561,14.2163133 C36.5479298,14.235825 36.5479298,14.2592388 36.5380744,14.2807031 C36.5262476,14.3119215 36.5124498,14.3411868 36.5065368,14.3724052 C36.5006234,14.4055751 36.5006234,14.436795 36.5006234,14.4680134 C36.5006234,14.4992318 36.5025944,14.5304502 36.5085078,14.5616686 C36.5144207,14.592887 36.5262476,14.6221524 36.5400454,14.6514227 C36.5518717,14.6806901 36.5656695,14.7099585 36.5834093,14.7372758 C36.6011496,14.7645922 36.6248022,14.7880044 36.6484574,14.8114207 C36.6642262,14.8270299 36.6740816,14.8465412 36.6937923,14.8621494 C37.5433388,15.5021015 38.0893173,16.2786652 38.5190356,17.4571721 C38.5387464,17.5137548 38.5702829,17.5625354 38.6077344,17.6054619 C38.6097054,17.609364 38.6116764,17.6132665 38.6136478,17.6152175 C38.6195613,17.6230221 38.6294166,17.6249732 38.63533,17.6308267 C38.6727805,17.6698497 38.716147,17.7010656 38.7634533,17.7244819 C38.7792221,17.7322865 38.7930199,17.7400911 38.8087887,17.7459447 C38.8679229,17.7693585 38.9290251,17.7849677 38.9921002,17.7849677 C39.0492614,17.7849677 39.1064227,17.7752116 39.1635839,17.7557003 L39.1655554,17.7557003 C39.2227166,17.7361891 39.2779099,17.7049717 39.3252162,17.6620451 L42.4651979,14.9538371 L42.9481163,17.808347 L39.2877294,20.3156275 Z M3.87885675,35.3084481 L3.28554671,34.4733436 L15.1789961,41.2689634 L15.7723061,42.1040679 L3.87885675,35.3084481 Z M1.05031495,26.3370312 L1.58448574,22.5732418 L14.6112693,30.0187037 L14.0770985,33.7824931 L1.05031495,26.3370312 Z M7.45269447,9.98658513 L20.54659,17.4710076 L18.0748517,21.2542772 L4.98095615,13.7698548 L7.45269447,9.98658513 Z M7.23390446,16.2927005 L20.3278,23.777123 C19.6438131,25.1195139 19.0998026,26.4892271 18.6780065,27.9311173 L5.60984562,20.4601812 C6.01786107,19.0085509 6.55400485,17.6368896 7.23405584,16.2925007 L7.23390446,16.2927005 Z M4.94543727,21.2349468 L17.6967086,28.5225684 L15.2269382,29.2152172 L2.47566689,21.9275955 L4.94543727,21.2349468 Z M17.8995583,33.5679603 C17.9291244,34.3874306 18.0276815,35.1249839 18.2011382,35.8234767 L15.8752296,34.494722 L17.8995583,33.5679603 Z M17.0046986,1.95346822 L29.9648748,9.35996954 L27.0299126,11.0360226 L14.0697364,3.63151928 L17.0046986,1.95346822 Z M31.2990402,12.2340597 L32.6118106,12.9833011 C32.1663437,13.0476909 31.7090287,13.1569553 31.2320292,13.3071932 L31.2990402,12.2340597 Z M13.8388309,7.65469604 L13.6259548,4.5309087 L26.5447537,11.9119358 L26.7576348,15.0357231 L13.8388309,7.65469604 Z M41.9526845,14.0662047 L39.1971081,16.4426987 C38.8028884,15.5802718 38.3061843,14.9013092 37.651767,14.3334841 L38.8284969,12.2808623 L41.9526845,14.0662047 Z M22.9948189,1.20222881 L36.0866961,8.68465326 L34.2082173,12.7449924 L31.3678678,11.1216359 L31.4762764,9.39293616 C31.4782473,9.37732697 31.4703629,9.36366929 31.4703629,9.35001112 C31.4683915,9.32269528 31.4683915,9.29537644 31.4624785,9.26806409 C31.4585361,9.25050387 31.4565651,9.23294365 31.4506517,9.21538243 C31.4447388,9.19391966 31.4329119,9.17635943 31.4230566,9.15684669 C31.4171432,9.14318852 31.4151722,9.12757932 31.4092588,9.11392165 C31.4033453,9.10416603 31.3954609,9.10026348 31.3895475,9.09050785 C31.3796922,9.07684968 31.3718078,9.06124049 31.3599814,9.04758231 C31.3442126,9.03002209 31.3264724,9.01636392 31.3087341,8.9988037 C31.2890234,8.98124348 31.2712837,8.96368326 31.247632,8.94807506 C31.2377766,8.94222149 31.2338347,8.93246586 31.2239793,8.92856331 L21.8888578,3.59196633 L22.9948189,1.20222881 Z M13.4033601,8.55977969 L26.4422541,16.0112355 C25.3758804,16.8853505 24.4140097,17.8394845 23.5329256,18.8989119 L21.6209414,16.9516833 C21.6071436,16.9380252 21.5894038,16.9321716 21.573635,16.9204649 C21.5578662,16.9087583 21.5499813,16.8911976 21.5322416,16.881442 C21.5282996,16.8794909 21.5243572,16.8794909 21.5204152,16.8775399 C21.5164728,16.8755884 21.5145018,16.8716863 21.5105599,16.8697348 L10.961368,10.8368428 C11.7123659,10.0075824 12.5185167,9.25639291 13.4035367,8.55977969 L13.4033601,8.55977969 Z M14.221369,35.0154947 C14.2450222,35.0291524 14.2706464,35.035006 14.294299,35.0447616 C14.3100678,35.0506152 14.3238656,35.0584198 14.3396344,35.0623223 C14.3554032,35.0662244 14.371172,35.0681754 14.3869408,35.0701264 C14.3928542,35.0720779 14.3987676,35.07598 14.4046805,35.07598 C14.4283337,35.0798825 14.4500159,35.0798825 14.4736696,35.0818336 L14.4756406,35.0818336 L14.479583,35.0818336 C14.5328033,35.0818336 14.5840506,35.0701264 14.63333,35.0545172 C14.6471278,35.0506152 14.6589541,35.0447616 14.670781,35.0408595 C14.6766944,35.038908 14.6806363,35.038908 14.6865497,35.036957 L14.7555388,35.0057386 L18.2975867,37.0310381 L15.4237317,40.2562727 L2.34346038,32.7813407 L5.03202582,29.7648447 L14.221369,35.0154947 Z M20.8482961,39.9928554 L20.9941561,40.0767555 C21.0040114,40.082609 21.0158383,40.0845601 21.0256937,40.0904136 C21.6662848,40.5079609 22.3542076,40.7674781 23.1505187,40.8923517 L21.9027914,44.7634325 L18.6780872,42.9215473 L20.8482961,39.9928554 Z M30.6860003,38.5470692 L31.2142673,40.3870064 L29.4383235,39.3724336 C29.8542258,39.1246394 30.2681401,38.853409 30.6860508,38.5471191 L30.6860003,38.5470692 Z M40.6064591,25.091692 L39.520406,25.1151058 C39.5677124,24.9277955 39.6189597,24.7365841 39.6603521,24.5512267 L40.6064591,25.091692 Z" fill-rule="nonzero"></path>
                                <path d="M31.5144355,20 C30.1930212,20 28.7158651,20.6374999 27.3574336,21.7914784 C24.7924262,23.9727612 23,27.6095434 23,30.6336002 C23,33.8536898 24.8001983,35 26.4855583,35 C27.8069725,35 29.2841286,34.3625001 30.6425601,33.2085216 C33.2075675,31.0272388 35,27.3904566 35,24.3663998 C35.0019397,21.1463102 33.1997954,20 31.5144355,20 L31.5144355,20 Z M29.9925397,32.4619453 C28.8326466,33.4488929 27.554029,34.0153628 26.4875013,34.0153628 C24.9052718,34.0153628 23.998372,32.7826369 23.998372,30.6320764 C23.998372,27.8747382 25.6487074,24.5431636 28.0113401,22.5346629 C29.1712332,21.5477154 30.4498508,20.9812455 31.5163785,20.9812455 C33.098608,20.9812455 34.0055078,22.2139714 34.0055078,24.3645319 C34.0055078,27.1237871 32.3551724,30.4534447 29.9925397,32.4619453 Z" fill-rule="nonzero"></path>
                            </g>
                        </g>
                    </g>
                </g>
            </g>
        </g>
    </g>
</svg>