<?xml version="1.0" encoding="UTF-8"?>
<svg width="25px" height="25px" viewBox="0 0 60 57" version="1.1" xmlns="http://www.w3.org/2000/svg" xmlns:xlink="http://www.w3.org/1999/xlink">
    <!-- Generator: Sketch 56.3 (81716) - https://sketch.com -->
    <title>succteam_symbol</title>
    <desc>Created with Sketch.</desc>
    <g id="dashboard3.0" stroke="none" stroke-width="1" fill="none" fill-rule="evenodd">
        <g id="Dashboard---Overview" transform="translate(-23.000000, -896.000000)" fill="#cacaca">
            <g id="SidebarButtons">
                <g transform="translate(0.000000, 181.000000)" id="Text_icons">
                    <g>
                        <g id="succteam_symbol" transform="translate(23.000000, 715.000000)">
                            <g id="successteam_icon">
                                <path d="M59.0901898,21.2350014 L44.6509493,21.2350014 L44.6509493,17.7046677 C44.6509493,15.748001 43.0376946,14.1547252 41.0566341,14.1547252 C40.3730753,14.1547252 39.7392149,14.3535845 39.1948241,14.6825532 C38.8443396,13.0867634 37.4051118,11.8862915 35.6850152,11.8862915 C34.807563,11.8862915 34.014617,12.2103517 33.3882017,12.7283376 C33.2390558,12.4803808 33.0675425,12.2446984 32.8562578,12.035997 C32.1801443,11.3657791 31.2753293,11 30.3108891,11 C28.6678536,11 27.2932272,12.1023023 26.8656689,13.5925064 C26.2989298,13.2316169 25.6377194,13.0327638 24.9392702,13.0327638 C22.9581461,13.0327638 21.344955,14.6261025 21.344955,16.5827063 L21.344955,19.3028583 L19.604941,19.3028583 C18.1035552,19.3028583 16.7886177,20.0762108 16.0279979,21.2349512 L0.909778419,21.2349512 C0.407666256,21.2349512 0,21.6375721 0,22.1334982 L0,22.7595272 C0,24.748121 1.31493749,26.4224087 3.12704912,27.023933 C3.13450642,29.0051107 4.44695008,30.6696569 6.24907305,31.2711184 C6.25901271,33.7555879 8.3072582,35.7736577 10.8227825,35.7736577 L15.4188912,35.7736577 C15.4288308,35.7982064 15.4512046,35.8153955 15.4636324,35.8374868 C15.4760602,35.8620355 15.4785483,35.8914989 15.4934578,35.9135902 L19.4283433,41.9013686 C20.1790361,43.0429513 20.7059911,44.2876686 21.0216805,45.6084328 L20.1442282,45.6084328 C19.6421161,45.6084328 19.2344498,46.0110537 19.2344498,46.5069798 L19.2344498,56.101453 C19.2344498,56.5973665 19.6421033,57 20.1442282,57 L43.6017101,57 C44.1038223,57 44.5114885,56.597379 44.5114885,56.101453 L44.5114885,46.5094937 C44.5114885,46.0135802 44.1038286,45.6109467 43.6017101,45.6109467 L42.9703378,45.6109467 C43.0846821,44.6043629 43.3282802,43.6149996 43.708622,42.6624656 C44.3325364,41.0814453 44.6482448,39.4119969 44.6482448,37.7033309 L44.6482448,35.7736892 L49.1747377,35.7736892 C51.6927437,35.7736892 53.7385202,33.7556822 53.7484471,31.2711498 C55.5530499,30.6696695 56.8630239,29.0051421 56.8704691,27.0239645 C58.6825808,26.4200267 60,24.7457013 60,22.7571075 L60,22.1310785 C60,21.635165 59.5923465,21.2349826 59.0902216,21.2349826 L59.0901898,21.2350014 Z M41.0587977,15.9493052 C42.0381919,15.9493052 42.8336197,16.7373643 42.8336197,17.7022166 L42.8336197,23.3438875 C42.8336197,23.348796 42.8311316,23.3512534 42.8311316,23.3561619 L42.8311316,24.4977446 C42.8162157,25.4527296 42.0282586,26.2260821 41.0587913,26.2260821 C40.0793971,26.2260821 39.2839635,25.438023 39.2839635,24.4731707 L39.2839635,17.7043723 C39.2814812,16.7346178 40.0793971,15.9490098 41.0587913,15.9490098 L41.0587977,15.9493052 Z M33.912675,15.4362026 C33.912675,14.4688992 34.7081027,13.6832912 35.6874969,13.6832912 C36.6668912,13.6832912 37.4648007,14.4713503 37.4648007,15.4362026 L37.4648007,26.7414158 C37.4648007,27.7087192 36.6668912,28.4943272 35.6874969,28.4943272 C34.7081027,28.4943272 33.912675,27.7062681 33.912675,26.7414158 L33.912675,15.4362026 Z M28.541056,14.54746 C28.541056,13.5801566 29.3364838,12.7945486 30.315878,12.7945486 C30.7956228,12.7945486 31.2430286,12.9762189 31.573672,13.3051938 C31.9067589,13.6341687 32.0907,14.0760952 32.0907,14.54746 L32.0931817,25.8526732 C32.0931817,26.8199766 31.2952723,27.6055846 30.315878,27.6055846 C29.8435912,27.6055846 29.4011361,27.4239143 29.0680746,27.0949394 C28.7275298,26.7585987 28.541107,26.3166847 28.541107,25.8502221 L28.541107,25.1235662 C29.334053,24.5883723 29.9778403,23.856789 30.3656273,23.0024246 C30.5272009,22.6660838 30.6092254,22.2978285 30.6092254,21.9099267 C30.6092254,20.6627583 29.7218462,19.619408 28.5386316,19.3616029 L28.5386316,16.5775968 L28.541056,14.54746 Z M23.1719189,16.5802364 C23.1719189,15.612933 23.9673466,14.827325 24.9467409,14.827325 C25.4264856,14.827325 25.8714097,15.0089953 26.2045348,15.3477872 C26.5376218,15.6767621 26.7215628,16.1162375 26.7215628,16.5801861 L26.7215628,19.3003381 L23.1695008,19.3003381 L23.1695008,16.5801861 L23.1719189,16.5802364 Z M1.83218187,23.0297637 L15.3493644,23.0297637 L15.3493644,25.4823062 L4.57863664,25.4823062 C3.14934655,25.4823062 1.97109537,24.4045777 1.83192733,23.0297637 L1.83218187,23.0297637 Z M4.95675116,27.2769491 L15.3494917,27.2769491 L15.3494917,29.7294915 L7.70065866,29.7294915 C6.27385221,29.7294915 5.09560103,28.6517631 4.95643299,27.2769491 L4.95675116,27.2769491 Z M8.07877318,31.5241344 L15.3470736,31.5241344 L15.3470736,33.9766769 L10.8255442,33.9766769 C9.39625604,33.9766769 8.21800485,32.9013995 8.07877318,31.5241344 L8.07877318,31.5241344 Z M42.6926062,55.2080143 L21.0518813,55.2080143 L21.0518813,47.4084995 L42.6926062,47.4084995 L42.6926062,55.2080143 Z M22.8718199,45.611217 C22.5287933,43.9342267 21.8974528,42.3581085 20.9528664,40.9244054 L17.1671395,35.1624421 L17.1671395,23.5159608 C17.1671395,22.1828783 18.2633662,21.1001848 19.6131116,21.1001848 L27.9778296,21.1001848 C28.4799417,21.1001848 28.7906295,21.5224523 28.7906295,21.9152688 C28.7906295,22.0355674 28.7682557,22.1435854 28.7135748,22.2540607 C28.3954037,22.9513035 27.8386043,23.5281912 27.1425732,23.8792637 C26.6553769,24.124763 26.1085172,24.2548848 25.5591629,24.2548848 L21.7982534,24.2548848 C21.2961412,24.2548848 20.888475,24.6575058 20.888475,25.1534318 L20.888475,35.4304413 C20.888475,35.9263548 21.2961285,36.3289883 21.7982534,36.3289883 C22.3003783,36.3289883 22.7080318,35.9263674 22.7080318,35.4304413 L22.7105135,26.0471395 L25.5616447,26.0471395 C25.9543887,26.0471395 26.3471455,26.0004932 26.7299053,25.9145666 C26.7473093,26.8351734 27.1151914,27.7043073 27.7838152,28.367109 C28.4624105,29.0348758 29.3597803,29.403106 30.3167753,29.403106 C31.1967092,29.403106 31.992137,29.0765884 32.6185522,28.558546 C33.2474365,29.5920918 34.3833836,30.2917857 35.6908759,30.2917857 C37.4109725,30.2917857 38.8477058,29.091251 39.2006849,27.4955241 C39.7450565,27.824499 40.378936,28.0233521 41.0624948,28.0233521 C41.7112457,28.0233521 42.3102982,27.8392244 42.8348351,27.5421703 L42.8348351,37.7035383 C42.8348351,39.1912913 42.5614052,40.6397639 42.0220352,42.0096757 C41.5596944,43.17093 41.2738241,44.3787551 41.1545099,45.611217 L22.8718199,45.611217 Z M49.1756604,33.9764883 L44.6516493,33.9764883 L44.6516493,31.5239459 L51.9199497,31.5239459 C51.7832379,32.901211 50.6050122,33.9764883 49.175724,33.9764883 L49.1756604,33.9764883 Z M52.3002278,29.729303 L44.6513884,29.729303 L44.6513884,27.2767605 L55.0441353,27.2767605 C54.9049354,28.6515745 53.726716,29.729303 52.2999096,29.729303 L52.3002278,29.729303 Z M55.4222498,25.4821176 L44.6515156,25.4821176 L44.6515156,23.0320263 L58.1687026,23.0320263 C58.0295028,24.4043892 56.8512834,25.4821176 55.4219953,25.4821176 L55.4222498,25.4821176 Z" id="Fill-1"></path>
                                <path d="M20.5266584,8.66837025 C20.6915249,8.88772091 20.9273734,9 21.1632044,9 C21.3555457,9 21.5501849,8.92427379 21.7081813,8.77020757 C22.0585248,8.42812937 22.09974,7.82490001 21.7974818,7.42280504 L19.4733475,4.33365946 C19.1733813,3.93152438 18.6444132,3.88713015 18.2918187,4.23182214 C17.9414752,4.57390034 17.90026,5.1771297 18.2025182,5.57922467 L20.5266584,8.66837025 Z" id="Fill-2"></path>
                                <path d="M26.0156283,5.25021048 C26.125699,5.69846535 26.538466,6 26.9924929,6 C27.0695389,6 27.1465919,5.99199459 27.2263923,5.97331987 C27.7684898,5.8479178 28.1014635,5.32228645 27.972126,4.79928487 L26.9842719,0.751637313 C26.8576888,0.228669883 26.3128439,-0.0968536572 25.7734585,0.0258913335 C25.2341154,0.148629494 24.8983874,0.676924753 25.0277249,1.19992634 L26.0156283,5.25021048 Z" id="Fill-3"></path>
                                <path d="M33.7728376,5.97332436 C33.8525691,5.99199594 33.9295555,6 34.006535,6 C34.4629356,6 34.87536,5.69854336 34.9853005,5.24767306 L35.9723009,1.20070594 C36.1015197,0.675162962 35.7660958,0.149592662 35.2272117,0.0268683055 C34.6800855,-0.0985126883 34.1439253,0.2269493 34.0174445,0.752492282 L33.0276991,4.80212287 C32.8984803,5.32233209 33.2339042,5.85057268 33.7727883,5.97322874 L33.7728376,5.97332436 Z" id="Fill-4"></path>
                                <path d="M40.8357659,9 C41.0715867,9 41.3051217,8.88767061 41.4722371,8.66824143 L43.7984428,5.57789587 C44.0983738,5.17821269 44.0594493,4.57477576 43.7091528,4.22996994 C43.3588504,3.88775886 42.829968,3.93217033 42.5277629,4.33184682 L40.2015572,7.42219238 C39.9016262,7.82187556 39.9405507,8.42531249 40.2908472,8.77011831 C40.448825,8.92424437 40.6411496,9 40.8357601,9 L40.8357659,9 Z" id="Fill-5"></path>
                            </g>
                        </g>
                    </g>
                </g>
            </g>
        </g>
    </g>
</svg>
